<svg version="1.1" xmlns="http://www.w3.org/2000/svg" style="display: block;" viewBox="0 0 2048 2048" width="512" height="512">
<path transform="translate(0,0)" fill="rgb(250,156,5)" d="M 1594.15 1045.63 C 1619.92 1047.38 1646.03 1052.98 1671.01 1059.52 A 496.69 496.69 0 0 1 1922.75 1212.89 C 1988.99 1288.6 2028.25 1379.24 2041.25 1478.59 C 2044.67 1504.75 2047.28 1530.76 2045.48 1557.12 C 2043.88 1580.38 2042.12 1603.8 2038.16 1626.79 C 2018.69 1739.84 1961.74 1838.58 1875.37 1913.84 A 500.114 500.114 0 0 1 1513.46 2035.27 A 507.116 507.116 0 0 1 1162.48 1862.25 C 1120.49 1813.2 1087.59 1757.95 1067.62 1696.41 C 1063.67 1684.25 1059.82 1671.98 1056.6 1659.62 C 1054.92 1653.19 1053.96 1646.39 1051.98 1640.09 C 1053.29 1640.38 1054.22 1640.55 1055.52 1641 C 1059.72 1642.47 1096.4 1699.12 1102.72 1707.36 A 528.315 528.315 0 0 0 1216.13 1815.89 C 1312.56 1883.47 1434.06 1914.42 1550.64 1893.64 C 1656.56 1874.76 1753.55 1820.41 1815.56 1731.14 C 1879.03 1639.78 1896.57 1532.35 1876.92 1423.88 C 1853.17 1292.69 1769.65 1178.91 1667.19 1096.77 C 1644.03 1078.2 1618.53 1062.55 1594.15 1045.63 z"/>
<path transform="translate(0,0)" fill="rgb(254,193,63)" d="M 1470.23 1051.27 C 1504.66 1040.05 1558.12 1040.84 1594.15 1045.63 C 1618.53 1062.55 1644.03 1078.2 1667.19 1096.77 C 1769.65 1178.91 1853.17 1292.69 1876.92 1423.88 C 1896.57 1532.35 1879.03 1639.78 1815.56 1731.14 C 1753.55 1820.41 1656.56 1874.76 1550.64 1893.64 C 1434.06 1914.42 1312.56 1883.47 1216.13 1815.89 A 528.315 528.315 0 0 1 1102.72 1707.36 C 1096.4 1699.12 1059.72 1642.47 1055.52 1641 C 1054.22 1640.55 1053.29 1640.38 1051.98 1640.09 C 1051.42 1638 1050.94 1635.95 1050.54 1633.83 A 501.87 501.87 0 0 1 1131.87 1253.65 C 1173.7 1193.49 1234.31 1140.14 1298.73 1105.62 C 1307.93 1100.69 1317.73 1096.7 1327.14 1092.18 C 1351.5 1080.48 1378.92 1068.75 1405.56 1064.03 C 1418.37 1083.47 1419.06 1137.14 1435.97 1151.79 C 1442.42 1157.37 1451.12 1159.39 1459.48 1158.4 C 1468.03 1157.39 1476.89 1153.58 1482.22 1146.6 C 1498.94 1124.74 1472.94 1077.99 1470.35 1052.68 C 1470.31 1052.21 1470.27 1051.74 1470.23 1051.27 z"/>
<path transform="translate(0,0)" fill="rgb(196,2,33)" d="M 1500.18 1765.34 C 1502.71 1764.86 1504.98 1764.39 1507.33 1763.32 C 1522.93 1756.19 1537.42 1745.18 1551.19 1735.01 C 1623.38 1681.74 1688.78 1604.4 1720.18 1519.55 C 1743.91 1455.42 1747.87 1385.81 1721.31 1321.71 C 1715.4 1307.45 1706.08 1294.69 1699.66 1280.7 L 1700.74 1279.5 C 1745.56 1283.78 1782.4 1303.88 1811.12 1338.4 C 1840.16 1373.31 1852.14 1417.22 1847.74 1462.18 C 1834.32 1599.49 1660.19 1718.63 1589.21 1834.27 C 1569.36 1810.01 1527.5 1781.93 1500.18 1765.34 z"/>
<path transform="translate(0,0)" fill="rgb(234,35,57)" d="M 1520.75 1387.31 C 1537.52 1350.54 1556.8 1322.75 1592.46 1301.83 C 1619.22 1286.13 1670.17 1271.38 1700.74 1279.5 L 1699.66 1280.7 C 1706.08 1294.69 1715.4 1307.45 1721.31 1321.71 C 1747.87 1385.81 1743.91 1455.42 1720.18 1519.55 C 1688.78 1604.4 1623.38 1681.74 1551.19 1735.01 C 1537.42 1745.18 1522.93 1756.19 1507.33 1763.32 C 1504.98 1764.39 1502.71 1764.86 1500.18 1765.34 C 1418.19 1711.46 1322.71 1674.01 1260.46 1594.88 C 1231.06 1557.52 1216.26 1512.65 1222.01 1465.05 A 162.035 162.035 0 0 1 1283.45 1356.93 C 1318.58 1329.48 1365.14 1317.74 1409.24 1323.3 C 1455.89 1329.19 1492.04 1350.52 1520.75 1387.31 z"/>
<path transform="translate(0,0)" fill="rgb(0,0,0)" d="M 1038.67 125.083 C 1055 113.828 1070.14 100.846 1086.45 89.4934 C 1130.28 59.0008 1181.92 35.0949 1234.54 24.8761 C 1274.76 17.0656 1313.92 16.7474 1354.5 21.8734 C 1408.89 28.745 1458.7 54.0383 1512.01 65.9802 C 1531.17 70.2716 1550.71 74.2895 1570.27 76.1955 C 1585.06 77.6362 1600.52 77.1959 1615.08 80.1215 C 1621.91 81.4925 1628.57 83.7918 1634.29 87.8541 C 1641.98 93.321 1647.59 101.435 1649.03 110.835 C 1653.43 139.403 1600.88 219.064 1582.74 243.517 C 1525.78 320.257 1436.68 380.777 1341.01 394.447 C 1263.78 405.482 1183.39 388.151 1120.71 340.668 C 1079.13 309.167 1049.15 266.94 1026.3 220.585 C 1020.77 209.354 1014.3 197.301 1012.53 184.824 C 983.067 179.23 944.013 171.021 915.9 161.119 C 911.011 159.397 905.126 156.275 899.929 156.419 L 899.898 158.462 L 900.988 156.484 L 899.749 157.749 C 903.078 169.007 929.615 210.361 937.332 222.498 A 1901.88 1901.88 0 0 0 1095.02 435.179 C 1128.52 474.593 1163.83 512.412 1197.47 551.701 A 1562.47 1562.47 0 0 1 1312.9 704.221 A 1230.84 1230.84 0 0 1 1434.95 946.051 A 1459.08 1459.08 0 0 1 1456.46 1008.24 C 1460.73 1021.99 1463.97 1037.14 1469.77 1050.27 C 1469.92 1050.6 1470.08 1050.94 1470.23 1051.27 C 1470.27 1051.74 1470.31 1052.21 1470.35 1052.68 C 1472.94 1077.99 1498.94 1124.74 1482.22 1146.6 C 1476.89 1153.58 1468.03 1157.39 1459.48 1158.4 C 1451.12 1159.39 1442.42 1157.37 1435.97 1151.79 C 1419.06 1137.14 1418.37 1083.47 1405.56 1064.03 C 1403.89 1048.64 1397.85 1033.24 1393 1018.61 A 1133.9 1133.9 0 0 0 1368.31 949.474 C 1318.89 823.493 1247.48 709.928 1160.29 606.761 C 1105.21 541.596 1046.41 479.62 993.973 412.236 C 969.483 380.763 945.173 348.886 922.553 316.036 A 1674.58 1674.58 0 0 1 894.257 273.391 C 891.478 268.97 888.462 260.153 885.035 257.039 C 884.759 256.788 884.425 256.612 884.119 256.398 L 882.816 256.731 C 880.731 263.695 882.973 278.357 882.632 286.356 C 881.942 302.533 880.351 318.868 878.64 334.971 C 871.259 404.464 852.276 469.807 826.346 534.5 C 803.187 592.278 771.175 647.664 737.187 699.687 C 712.426 737.587 686.081 774.526 663.021 813.52 C 635.74 859.65 613.372 907.312 596.523 958.188 C 586.573 988.234 578.048 1019.68 574.13 1051.14 C 589.443 1052.31 608.084 1052.38 618.893 1065.07 C 625.362 1072.67 627.222 1084.12 626.11 1093.86 C 626.024 1094.61 625.909 1095.35 625.791 1096.1 C 645.257 1101.94 664.748 1110.27 684.374 1115 C 686.14 1111.74 688.735 1108.34 691.317 1105.65 A 30.2901 30.2901 0 0 1 712.616 1096.19 C 740.019 1095.59 803.488 1142.01 825.656 1159.82 C 835.687 1167.89 845.199 1176.79 854.596 1185.58 C 869.907 1199.91 883.631 1216.1 896.743 1232.44 A 494.242 494.242 0 0 1 1006.7 1530.48 A 493.609 493.609 0 0 1 868.007 1886.96 C 779.467 1980.3 650.875 2033.45 523.044 2036.25 C 384.691 2039.27 255.672 1991.07 155.552 1894.94 A 490.63 490.63 0 0 1 7.9988 1558.42 C 5.33346 1425.45 52.0006 1296.23 144.878 1199.99 A 505.77 505.77 0 0 1 438.696 1050.53 C 461.783 1047.3 485.199 1046.32 508.481 1045.92 C 526.181 962.018 547.14 892.246 588.001 816.109 C 618.475 759.324 656.638 707.067 691.533 653.001 C 734.336 586.682 771.082 514.15 793.319 438.221 C 816.319 359.689 826.16 277.799 813.456 196.531 A 483.481 483.481 0 0 0 806.094 157.892 C 802.051 140.851 790.226 113.522 793.532 96.5025 C 795.157 88.1389 800.575 79.993 807.793 75.4015 A 31.2148 31.2148 0 0 1 827.982 70.6174 C 848.662 72.6846 886.616 86.3799 908.398 92.4835 C 951.676 104.61 994.804 115.376 1038.67 125.083 z"/>
<path transform="translate(0,0)" fill="rgb(73,170,252)" d="M 625.791 1096.1 C 645.257 1101.94 664.748 1110.27 684.374 1115 C 682.066 1125.58 680.638 1135.94 687.123 1145.44 C 693.634 1154.97 731.553 1171.22 744.606 1179.56 C 766.286 1193.41 785.934 1209.32 805.22 1226.26 C 797.035 1231.17 789.255 1236.71 781.41 1242.14 C 769.365 1238.15 756.901 1233.87 744.07 1233.81 L 744.463 1233.24 C 744.527 1229.85 737.218 1224.63 734.766 1221.69 C 709.153 1191.08 678.045 1165.58 646.268 1141.65 C 636.665 1134.42 612.731 1123.03 606.709 1114.92 C 614.699 1109.67 619.931 1103.55 625.791 1096.1 z"/>
<path transform="translate(0,0)" fill="rgb(132,195,252)" d="M 563.322 1113.48 C 577.314 1115.02 593.337 1121.4 606.709 1114.92 C 612.731 1123.03 636.665 1134.42 646.268 1141.65 C 678.045 1165.58 709.153 1191.08 734.766 1221.69 C 737.218 1224.63 744.527 1229.85 744.463 1233.24 L 744.07 1233.81 C 728.726 1233.69 711.129 1236.4 697.026 1242.49 C 670.458 1253.97 643.355 1284.87 614.264 1283.31 C 603.602 1282.74 595.394 1277.53 588.563 1269.61 C 573.85 1252.56 584.338 1234.42 590.345 1216.51 C 593.08 1208.36 594.923 1200.06 595.517 1191.47 C 597.702 1159.91 583.11 1136.52 563.322 1113.48 z"/>
<path transform="translate(0,0)" fill="rgb(250,62,115)" d="M 782.424 1742.03 C 789.731 1745.64 795.358 1748.9 798.037 1757.13 C 800.658 1765.19 799.067 1778.72 795.162 1786.32 C 791.22 1794 784.238 1801.46 778.365 1807.7 C 749.003 1838.89 716.544 1867.94 685.722 1897.76 L 648.5 1933.74 C 640.888 1941.09 633.331 1949.24 624.848 1955.55 C 620.45 1958.82 614.736 1960.71 609.477 1962.16 C 584.657 1969.01 556.767 1972.96 531.071 1973.9 A 2174.38 2174.38 0 0 1 533.344 1907.03 C 534.11 1889.66 535.538 1871.7 534.242 1854.34 C 553.098 1849.57 573.48 1849.26 592.698 1845 C 648.543 1832.62 703.561 1808.47 748.412 1772.82 C 760.228 1763.43 770.191 1752.31 781.647 1742.68 L 782.424 1742.03 z"/>
<path transform="translate(0,0)" fill="rgb(164,226,58)" d="M 1076.45 178.912 C 1080.13 171.503 1127.15 139.203 1136.48 133.339 C 1210.9 86.5527 1295.84 69.7814 1381.59 93.0153 C 1424.88 104.743 1466.11 121.476 1510.02 131.471 C 1498.7 143.347 1480.13 150.211 1465.26 156.636 C 1405.18 182.605 1339.87 201.431 1274.01 202.953 C 1234.57 203.865 1196.87 202.154 1157.94 195.561 C 1141.95 192.854 1125.98 189.429 1110.16 185.903 C 1099.91 183.619 1086.84 178.272 1076.45 178.912 z"/>
<path transform="translate(0,0)" fill="rgb(249,91,139)" d="M 627.51 1657.59 A 853.962 853.962 0 0 0 663.713 1672.47 C 673.065 1676.03 683.411 1679.14 692.214 1683.86 C 692.348 1693.83 693.78 1702.37 701.221 1709.6 C 713.196 1721.22 763.576 1733.68 782.424 1742.03 L 781.647 1742.68 C 770.191 1752.31 760.228 1763.43 748.412 1772.82 C 703.561 1808.47 648.543 1832.62 592.698 1845 C 573.48 1849.26 553.098 1849.57 534.242 1854.34 C 531.692 1808.74 487.08 1796.48 492.719 1746.63 C 495.53 1721.78 509.664 1697.49 529.266 1682.11 C 543.001 1671.34 564.395 1662.65 582.156 1665.29 C 589.052 1666.31 595.615 1669.2 602.591 1669.86 C 612.757 1670.82 620.352 1663.72 627.51 1657.59 z"/>
<path transform="translate(0,0)" fill="rgb(132,195,252)" d="M 828.822 1415.2 C 846.204 1435.1 849.422 1525.68 847.469 1554.69 A 348.447 348.447 0 0 1 830.867 1642.46 C 825.989 1656.98 818.213 1671.63 815.303 1686.62 C 800.194 1679.9 784.147 1675.26 768.554 1669.78 C 756.224 1665.44 743.935 1660.02 731.303 1656.74 C 722.404 1654.44 714.918 1654.6 706.855 1659.55 C 697.756 1665.14 694.362 1673.96 692.214 1683.86 C 683.411 1679.14 673.065 1676.03 663.713 1672.47 A 853.962 853.962 0 0 1 627.51 1657.59 C 629.579 1654.57 631.472 1651.5 632.89 1648.11 C 648.841 1609.98 605.167 1611.73 598.028 1592.65 C 596.542 1588.67 596.449 1583.79 596.768 1579.6 C 598.415 1557.92 619.988 1554.39 627.326 1536.91 C 631.255 1527.55 628.334 1518.75 624.971 1509.81 C 628.931 1507.09 634.08 1505.58 638.445 1503.45 C 644.006 1508.26 650.672 1512.34 657.881 1514.06 C 662.471 1515.16 667.03 1515.33 671.715 1514.86 C 681.977 1513.82 692.392 1510.42 702.453 1508.16 C 720.243 1504.16 738.562 1501.32 755.889 1495.57 A 110.26 110.26 0 0 0 778.102 1485.51 C 804.892 1469.41 821.272 1445.13 828.822 1415.2 z"/>
<path transform="translate(0,0)" fill="rgb(73,170,252)" d="M 818.073 1295.34 C 827.373 1286.24 839.881 1282.27 849.002 1273.47 C 862.64 1293.43 877.014 1312.09 888.865 1333.27 A 427.724 427.724 0 0 1 937.363 1619.3 C 924.09 1689.35 894.792 1751.12 853.122 1808.65 C 862.819 1781.49 866.656 1753.27 854.031 1726.26 C 845.794 1708.63 832.41 1695.63 815.303 1686.62 C 818.213 1671.63 825.989 1656.98 830.867 1642.46 A 348.447 348.447 0 0 0 847.469 1554.69 C 849.422 1525.68 846.204 1435.1 828.822 1415.2 C 839.244 1369.12 813.474 1336.75 818.073 1295.34 z"/>
<path transform="translate(0,0)" fill="rgb(73,170,252)" d="M 71.9465 1569.53 C 74.1693 1571.01 75.8354 1572.43 77.4175 1574.58 C 85.4179 1585.49 92.0877 1597.83 99.1691 1609.37 C 110.45 1627.75 122.546 1646.21 135.756 1663.25 C 204.019 1751.31 290.536 1814.9 399.498 1842.44 C 419.073 1847.39 447.415 1854.76 467.082 1851.68 C 469.937 1855.97 471.057 1859.88 471.633 1865 C 473.386 1880.61 471.133 1897.49 470.458 1913.21 A 1753.31 1753.31 0 0 0 469.225 1973.51 C 450.097 1970.92 430.785 1968.35 411.952 1964.05 A 443.717 443.717 0 0 1 194.298 1843.66 A 425.505 425.505 0 0 1 76.5065 1613.17 C 74.2959 1598.91 71.8481 1583.98 71.9465 1569.53 z"/>
<path transform="translate(0,0)" fill="rgb(139,202,18)" d="M 1510.02 131.471 C 1530.26 135.482 1551.75 139.951 1572.45 140.162 C 1539.28 198.922 1501.88 248.391 1445.15 286.405 C 1420.33 303.034 1394 316.023 1365.14 324.022 C 1306.88 340.173 1239.96 338.263 1186.58 307.499 C 1147.14 284.764 1116.25 252.278 1093.89 212.728 C 1087.7 201.762 1083.01 189.567 1076.45 178.912 C 1086.84 178.272 1099.91 183.619 1110.16 185.903 C 1125.98 189.429 1141.95 192.854 1157.94 195.561 C 1196.87 202.154 1234.57 203.865 1274.01 202.953 C 1339.87 201.431 1405.18 182.605 1465.26 156.636 C 1480.13 150.211 1498.7 143.347 1510.02 131.471 z"/>
<path transform="translate(0,0)" fill="rgb(249,91,139)" d="M 490.147 1633.96 C 461.829 1634.9 433.142 1633.75 411.288 1613.12 C 393.386 1596.21 375.858 1566.29 361.447 1545.46 C 343.936 1520.15 319.19 1488.43 306.357 1461.24 A 86.7291 86.7291 0 0 1 297.828 1425.79 C 297.435 1411.95 300.481 1398.67 305.721 1385.92 C 310.95 1373.18 318.225 1361.53 324.95 1349.57 L 356.521 1293.69 C 374.234 1262.61 390.64 1229.99 409.888 1199.9 C 414.151 1193.24 418.787 1186.91 424.297 1181.22 C 441.262 1163.7 461.264 1157.68 485.133 1157.51 C 501.053 1157.39 515.49 1158.08 527.309 1170.21 C 530.316 1173.3 533.232 1177.35 533.57 1181.79 C 534.394 1192.59 525.283 1209.46 522.084 1220.08 C 519.39 1229.03 517.778 1238.48 517.73 1247.83 C 517.601 1272.64 527.908 1298.05 545.355 1315.68 C 580.305 1351 633.146 1353.06 675.05 1329.54 C 691.092 1320.54 705.302 1306.68 722.441 1299.97 C 733.464 1295.66 744.144 1295.64 755.813 1295.75 C 750.332 1334.14 774.533 1375.26 767.795 1403.46 C 765.641 1412.47 760.402 1422.13 752.912 1427.8 C 737.068 1439.8 693.133 1445.96 672.226 1450.3 C 662.9 1452.23 653.223 1453.64 645.032 1458.85 C 638.417 1463.06 632.975 1469.48 631.4 1477.31 C 629.531 1486.6 633.185 1495.94 638.445 1503.45 C 634.08 1505.58 628.931 1507.09 624.971 1509.81 C 621.211 1505.56 617.398 1501.14 612.554 1498.09 C 606.114 1494.02 598.647 1492.47 591.23 1494.53 C 574.091 1499.28 555.393 1521.02 546.696 1535.94 C 533.389 1558.77 532.306 1583.15 539 1608.29 C 520.631 1613.21 504.57 1621.52 490.147 1633.96 z"/>
<path transform="translate(0,0)" fill="rgb(132,195,252)" d="M 71.9465 1569.53 C 69.7313 1552.08 70.4699 1533.65 71.5387 1516.11 A 426.352 426.352 0 0 1 157.864 1283 A 443.041 443.041 0 0 1 348.768 1140.01 C 364.481 1133.72 380.681 1129.06 396.668 1123.58 C 385.282 1132.46 374.204 1141.46 365.426 1153.07 C 355.42 1166.3 347.532 1181.63 339.346 1196.05 L 301.617 1263.05 A 5447.13 5447.13 0 0 1 271.989 1315.49 C 264.542 1328.58 256.686 1341.54 250.653 1355.36 A 164.386 164.386 0 0 0 238.135 1401.12 C 228.305 1478.67 263.677 1514.52 304.626 1573.33 C 320.21 1595.7 334.144 1619.56 350.946 1641.02 C 373.541 1669.87 402.011 1687.34 438.779 1691.71 A 123.621 123.621 0 0 0 444.803 1692.27 C 428.884 1729.04 424.45 1767.97 439.58 1805.86 C 446.299 1822.69 456.83 1836.89 467.082 1851.68 C 447.415 1854.76 419.073 1847.39 399.498 1842.44 C 290.536 1814.9 204.019 1751.31 135.756 1663.25 C 122.546 1646.21 110.45 1627.75 99.1691 1609.37 C 92.0877 1597.83 85.4179 1585.49 77.4175 1574.58 C 75.8354 1572.43 74.1693 1571.01 71.9465 1569.53 z"/>
</svg>